# AST/ASF file generated using VICON BodyLanguage
# -----------------------------------------------
:version 1.10
:name VICON
:units
  mass 1.0
  length 0.45
  angle deg
:documentation
   .ast/.asf automatically generated from VICON data using
   VICON BodyBuilder and BodyLanguage model FoxedUp or BRILLIANT.MOD
:root
   order TX TY TZ RX RY RZ
   axis XYZ
   position 0 0 0  
   orientation 0 0 0 
:bonedata
  begin
     id 1 
     name lhipjoint
     direction 0.661853 -0.702389 0.261917 
     length 2.64193 
     axis 0 0 0  XYZ
  end
  begin
     id 2 
     name lfemur
     direction 0.34202 -0.939693 0  
     length 7.01722  
     axis 0 0 20  XYZ
    dof rx ry rz
    limits (-160.0 20.0)
           (-70.0 70.0)
           (-60.0 70.0)
  end
  begin
     id 3 
     name ltibia
     direction 0.34202 -0.939693 0   
     length 8.25008   
     axis 0 0 20   XYZ
    dof rx
    limits (-10.0 170.0)
  end
  begin
     id 4 
     name lfoot
     direction 0.0709916 -0.195048 0.978221   
     length 2.31941   
     axis -90 7.62852e-016 20   XYZ
    dof rx rz
    limits (-45.0 90.0)
           (-70.0 20.0)
  end
  begin
     id 5 
     name ltoes
     direction 1.53586e-011 -4.22017e-011 1   
     length 1.16486   
     axis -90 7.62852e-016 20   XYZ
    dof rx
    limits (-90.0 20.0)
  end
  begin
     id 6 
     name rhipjoint
     direction -0.638185 -0.721362 0.268992   
     length 2.57244  
     axis 0 0 0  XYZ 
  end
  begin
     id 7 
     name rfemur
     direction -0.34202 -0.939693 0   
     length 7.07017   
     axis 0 0 -20   XYZ
    dof rx ry rz
    limits (-160.0 20.0)
           (-70.0 70.0)
           (-70.0 60.0)
  end
  begin
     id 8 
     name rtibia
     direction -0.34202 -0.939693 0   
     length 8.20386   
     axis 0 0 -20   XYZ
    dof rx
    limits (-10.0 170.0)
 end
 begin
     id 9 
     name rfoot
     direction -0.0822429 -0.225961 0.970658   
     length 2.32215  
     axis -90 -7.62852e-016 -20   XYZ
    dof rx rz
    limits (-45.0 90.0)
           (-20.0 70.0)
  end
  begin
     id 10 
     name rtoes
     direction -1.53597e-011 -4.21689e-011 1   
     length 1.16333   
     axis -90 -7.62852e-016 -20   XYZ
    dof rx
    limits (-90.0 20.0)
  end
  begin
     id 11 
     name lowerback
     direction -0.0131557 0.998589 -0.0514484   
     length 2.14993   
     axis 0 0 0   XYZ
    dof rx ry rz
    limits (-20.0 45.0)
           (-30.0 30.0)
           (-30.0 30.0)
  end
  begin
     id 12 
     name upperback
     direction -0.000776481 0.999993 0.00352685   
     length 2.15301   
     axis 0 0 0   XYZ
    dof rx ry rz
    limits (-20.0 45.0)
           (-30.0 30.0)
           (-30.0 30.0)
  end
  begin
     id 13 
     name thorax
     direction 0.00438186 0.999609 0.0276143   
     length 2.15424   
     axis 0 0 0   XYZ
    dof rx ry rz
    limits (-20.0 45.0)
           (-30.0 30.0)
           (-30.0 30.0)
  end
  begin
     id 14 
     name lowerneck
     direction -0.0488006 0.998094 0.0377807   
     length 1.90481   
     axis 0 0 0   XYZ
    dof rx ry rz
    limits (-20.0 45.0)
           (-30.0 30.0)
           (-30.0 30.0)
  end
  begin
     id 15 
     name upperneck
     direction 0.0443769 0.990702 -0.12861   
     length 1.91305   
     axis 0 0 0   XYZ
    dof rx ry rz
    limits (-20.0 45.0)
           (-30.0 30.0)
           (-30.0 30.0)
  end
  begin
     id 16
     name head
     direction 0.0165599 0.998647 -0.0492982  
     length 1.92369  
     axis 0 0 0   XYZ
    dof rx ry rz
    limits (-20.0 45.0)
           (-30.0 30.0)
           (-30.0 30.0)
  end
  begin
     id 17 
     name lclavicle
     direction 0.911936 0.410197 -0.0105506  
     length 3.52622  
     axis 0 0 0   XYZ
    dof ry rz
    limits (-20.0 10.0)
           (0.0 20.0)
  end
  begin
     id 18 
     name lhumerus
     direction 1 -4.48974e-011 -2.48591e-028   
     length 5.47651   
     axis 180 -30 -90   XYZ
    dof rx ry rz
    limits (-60.0 90.0)
           (-90.0 90.0)
           (-90.0 90.0)
  end
  begin
     id 19
     name lradius
     direction 1 -4.48938e-011 -4.40099e-027   
     length 3.09058   
     axis 180 -30 -90   XYZ
    dof rx
    limits (-10.0 170.0)
  end
  begin
     id 20
     name lwrist
     direction 1 -4.49042e-011 -2.99852e-027   
     length 1.54529   
     axis 1.95339e-015 90 90   XYZ
    dof ry
    limits (-180.0 0.0)
 end
  begin
     id 21 
     name lhand
     direction 1 -4.48815e-011 -5.98193e-027   
     length 0.771611   
     axis 3.82337e-015 90 90   XYZ
    dof rx rz
    limits (-90.0 90.0)
           (-45.0 45.0)
  end
  begin
     id 22 
     name lfingers
     direction 1 -4.49034e-011 -1.1993e-026   
     length 0.622093   
     axis 7.64668e-015 90 90   XYZ
    dof rx
    limits (0.0 90.0)
  end
  begin
     id 23
     name lthumb
     direction 0.707107 -6.34867e-011 0.707107   
     length 0.893204   
     axis -90 45 -1.62303e-014   XYZ
    dof rx rz
    limits (-45.0 45.0)
           (-45.0 45.0)
  end
  begin
     id 24 
     name rclavicle
     direction -0.93442 0.355634 -0.0195692   
     length 3.62463  
     axis 0 0 0   XYZ 
    dof ry rz
    limits (-10.0 20.0)
           (-20.0 0.0)
  end
  begin
     id 25 
     name rhumerus
     direction -1 -4.48957e-011 -1.19147e-027  
     length 5.14182   
     axis 180 30 90   XYZ
    dof rx ry rz
    limits (-90.0 60.0)
           (-90.0 90.0)
           (-90.0 90.0)
  end
  begin
     id 26 
     name rradius
     direction -1 -4.48952e-011 -3.81062e-027   
     length 3.35565   
     axis 180 30 90   XYZ
    dof rx
    limits (-10.0 170.0)
  end
  begin
     id 27 
     name rwrist
     direction -1 -4.48973e-011 -2.99621e-027   
     length 1.67782   
     axis 1.95339e-015 -90 -90   XYZ
    dof ry
    limits (-180.0 0.0)
  end
  begin
     id 28
     name rhand
     direction -1 -4.48895e-011 -5.98727e-027   
     length 0.801042   
     axis 3.82337e-015 -90 -90   XYZ
    dof rx rz
    limits (-90.0 90.0)
           (-45.0 45.0)
  end
  begin
     id 29
     name rfingers
     direction -1 -4.49065e-011 -1.19972e-026   
     length 0.645821   
     axis 7.64668e-015 -90 -90   XYZ
    dof rx
    limits (0.0 90.0)
  end
  begin
     id 30
     name rthumb
     direction -0.707107 -6.34957e-011 0.707107   
     length 0.927273   
     axis -90 -45 1.62303e-014   XYZ
    dof rx rz
    limits (-45.0 45.0)
           (-45.0 45.0)
  end
:hierarchy
  begin
    root lhipjoint rhipjoint lowerback
    lhipjoint lfemur
    lfemur ltibia
    ltibia lfoot
    lfoot ltoes
    rhipjoint rfemur
    rfemur rtibia
    rtibia rfoot
    rfoot rtoes
    lowerback upperback
    upperback thorax
    thorax lowerneck lclavicle rclavicle
    lowerneck upperneck
    upperneck head
    lclavicle lhumerus
    lhumerus lradius
    lradius lwrist
    lwrist lhand lthumb
    lhand lfingers
    rclavicle rhumerus
    rhumerus rradius
    rradius rwrist
    rwrist rhand rthumb
    rhand rfingers
  end

#!OML:ASF E:\Style4\Style4.ASF
:FULLY-SPECIFIED
:DEGREES
125
root -0.685965 17.9528 -0.669014 -2.22974 0.23016 2.61478
lowerback 4.28329 3.40409 0.575259
upperback 5.09044 4.54461 0.399971
thorax 2.85707 2.28669 0.0139724
lowerneck 9.52128 -3.70117 -5.80344
upperneck 8.44247 -5.61772 5.61674
head 1.41734 -2.92537 2.90638
rclavicle 1.51076e-014 -1.27222e-014
rhumerus 7.84807 18.0329 -84.2141
rradius 132.128
rwrist 24.3426
rhand 28.1652 -5.81599
rfingers 7.12502
rthumb 52.05 -25.8919
lclavicle 1.51076e-014 -1.27222e-014
lhumerus 18.6988 -20.8267 83.206
lradius 136.062
lwrist -11.3771
lhand 24.0777 47.2526
lfingers 7.12502
lthumb 48.313 69.3181
rfemur -6.82239 -1.97173 18.7165
rtibia 26.2437
rfoot -16.9843 -19.1191
rtoes -5.93903
lfemur -5.17429 -0.260607 -19.1488
ltibia 22.2703
lfoot -15.5963 13.7832
ltoes -13.7061
126
root -0.673539 17.9381 -0.680699 -2.31436 0.22509 2.62299
lowerback 4.40392 3.43109 0.479527
upperback 5.18889 4.57812 0.43947
thorax 2.8815 2.29991 0.102657
lowerneck 9.60954 -3.75006 -5.8088
upperneck 8.27655 -5.68592 5.71665
head 1.35607 -2.96035 2.94573
rclavicle 3.32964e-014 -1.59028e-015
rhumerus 7.63073 18.2542 -84.3588
rradius 131.964
rwrist 24.9101
rhand 28.3308 -5.91019
rfingers 7.12502
rthumb 52.2002 -25.8962
lclavicle 3.32964e-014 -1.59028e-015
lhumerus 19.4148 -20.9852 83.6713
lradius 136.208
lwrist -11.3714
lhand 24.3667 47.5069
lfingers 7.12502
lthumb 48.579 69.445
rfemur -7.06918 -2.20679 18.6305
rtibia 26.7671
rfoot -17.0843 -18.9682
rtoes -6.48585
lfemur -5.25726 -0.253593 -19.1983
ltibia 22.55
lfoot -15.684 13.8348
ltoes -14.75
127
root -0.662036 17.9213 -0.696116 -2.39387 0.264699 2.54287
lowerback 4.53814 3.44778 0.433507
upperback 5.30978 4.59838 0.502338
thorax 2.92363 2.30764 0.188044
lowerneck 9.50886 -3.82506 -5.64615
upperneck 8.18273 -5.76301 5.68769
head 1.34082 -2.99279 2.90441
rclavicle 2.29596e-014 1.59028e-015
rhumerus 7.55506 18.3669 -84.5078
rradius 131.922
rwrist 24.746
rhand 28.9808 -6.23823
rfingers 7.12502
rthumb 52.7884 -25.8637
lclavicle 2.29596e-014 1.59028e-015
lhumerus 20.0932 -21.1937 84.1338
lradius 136.313
lwrist -11.5108
lhand 24.1655 47.3766
lfingers 7.12502
lthumb 48.3939 69.4035
rfemur -7.32384 -2.4213 18.6511
rtibia 27.3059
rfoot -17.3327 -18.7809
rtoes -6.28845
lfemur -5.41542 -0.176917 -19.1311
ltibia 22.9126
lfoot -15.702 13.7174
ltoes -15.5887
128
root -0.653408 17.9054 -0.712622 -2.52006 0.288135 2.54273
lowerback 4.74429 3.50117 0.330934
upperback 5.41976 4.66753 0.508247
thorax 2.91465 2.33909 0.240016
lowerneck 9.53627 -3.90404 -5.45466
upperneck 8.01494 -5.84882 5.73529
head 1.28189 -3.03051 2.88805
rclavicle -4.49253e-014 1.98785e-014
rhumerus 7.43414 18.2647 -84.7036
rradius 132.004
rwrist 24.0922
rhand 29.9015 -6.3869
rfingers 7.12502
rthumb 53.6184 -25.4797
lclavicle -4.49253e-014 1.98785e-014
lhumerus 20.6995 -21.5452 84.6018
lradius 136.38
lwrist -11.6123
lhand 23.5266 46.8603
lfingers 7.12502
lthumb 47.805 69.1636
rfemur -7.56028 -2.52349 18.6087
rtibia 27.8598
rfoot -17.4504 -18.7509
rtoes -6.56909
lfemur -5.58027 -0.0547637 -19.1336
ltibia 23.36
lfoot -15.8685 13.4948
ltoes -15.5351
129
root -0.644845 17.8897 -0.729415 -2.64688 0.320829 2.65925
lowerback 4.8641 3.19761 -0.410675
upperback 5.52208 4.23672 0.894165
thorax 2.87101 2.09053 1.05043
lowerneck 9.75472 -3.53341 -6.26322
upperneck 7.83047 -5.4324 5.72694
head 1.18333 -2.84937 3.03913
rclavicle -2.98177e-015 7.95139e-015
rhumerus 7.41097 19.4355 -84.7011
rradius 131.991
rwrist 23.3078
rhand 30.7168 -6.42868
rfingers 7.12502
rthumb 54.3503 -25.0271
lclavicle -2.98177e-015 7.95139e-015
lhumerus 20.8486 -20.805 85.3682
lradius 136.501
lwrist -11.972
lhand 22.9985 46.2766
lfingers 7.12502
lthumb 47.3175 68.8017
rfemur -7.80113 -2.74558 18.4286
rtibia 28.4243
rfoot -17.5118 -18.7062
rtoes -7.34036
lfemur -5.80438 0.115859 -19.2655
ltibia 23.8796
lfoot -16.0265 13.2916
ltoes -15.5991
130
root -0.638158 17.8726 -0.745145 -2.77879 0.397564 2.72421
lowerback 5.11895 3.37973 -0.344118
upperback 5.62112 4.48363 0.725509
thorax 2.84623 2.22011 0.822369
lowerneck 9.91683 -3.77873 -5.86683
upperneck 7.60343 -5.72885 5.92932
head 1.09559 -2.98789 3.04414
rclavicle -6.83819e-014 1.59028e-015
rhumerus 7.05736 19.0844 -85.0334
rradius 132.02
rwrist 23.3293
rhand 31.6076 -6.72908
rfingers 7.12502
rthumb 55.1461 -24.7615
lclavicle -6.83819e-014 1.59028e-015
lhumerus 21.5546 -21.5128 85.7996
lradius 136.554
lwrist -11.8751
lhand 22.9498 45.9773
lfingers 7.12502
lthumb 47.2725 68.5225
rfemur -8.01426 -3.00717 18.3144
rtibia 29.0014
rfoot -17.6469 -18.6526
rtoes -7.72439
lfemur -6.0422 0.285499 -19.3384
ltibia 24.4246
lfoot -16.1402 13.0874
ltoes -15.5755
131
root -0.631617 17.8556 -0.761479 -2.91423 0.48294 2.70067
lowerback 5.24474 3.4903 -0.400927
upperback 5.82581 4.62861 0.755249
thorax 2.98077 2.28937 0.880576
lowerneck 10.0157 -3.94131 -5.66901
upperneck 7.27826 -5.92121 6.00951
head 0.98183 -3.08013 3.04321
rclavicle -2.51463e-014 3.18055e-015
rhumerus 7.00411 18.8791 -85.1148
rradius 132.115
rwrist 22.7078
rhand 32.725 -7.01414
rfingers 7.12502
rthumb 56.1387 -24.2958
lclavicle -2.51463e-014 3.18055e-015
lhumerus 22.2333 -21.9116 86.4702
lradius 136.638
lwrist -11.8534
lhand 23.0604 45.7857
lfingers 7.12502
lthumb 47.3747 68.2851
rfemur -8.21175 -3.23857 18.2925
rtibia 29.5741
rfoot -17.941 -18.5165
rtoes -7.29395
lfemur -6.29716 0.383851 -19.3231
ltibia 24.9977
lfoot -16.2834 12.9551
ltoes -15.7034
132
root -0.624534 17.8365 -0.777046 -3.06345 0.554755 2.70804
lowerback 5.32706 3.48161 -0.633782
upperback 6.04733 4.60768 0.892564
thorax 3.13732 2.26617 1.15435
lowerneck 10.1447 -3.93792 -5.82051
upperneck 6.93559 -5.92777 6.11107
head 0.857175 -3.08976 3.11433
rclavicle -2.28602e-015 1.51076e-014
rhumerus 7.01997 18.8385 -85.2211
rradius 132.331
rwrist 21.1774
rhand 34.1145 -6.92419
rfingers 7.12502
rthumb 57.3631 -23.2036
lclavicle -2.28602e-015 1.51076e-014
lhumerus 22.6589 -21.9628 87.2289
lradius 136.771
lwrist -11.9034
lhand 23.1486 45.5114
lfingers 7.12502
lthumb 47.4561 67.974
rfemur -8.38214 -3.49215 18.2242
rtibia 30.1196
rfoot -18.0615 -18.4026
rtoes -7.58629
lfemur -6.53365 0.50206 -19.3419
ltibia 25.6057
lfoot -16.5452 12.7356
ltoes -15.4678
133
root -0.617375 17.8168 -0.792808 -3.24465 0.686139 2.74154
lowerback 5.50031 3.41715 -0.84491
upperback 6.2336 4.51339 0.968307
thorax 3.21585 2.20836 1.34785
lowerneck 10.1965 -3.90289 -5.8987
upperneck 6.73854 -5.88573 6.15721
head 0.785381 -3.07192 3.1483
rclavicle 4.18442e-014 -8.74653e-015
rhumerus 6.91873 18.9834 -85.4761
rradius 132.553
rwrist 20.0117
rhand 35.3641 -7.07402
rfingers 7.12502
rthumb 58.4539 -22.381
lclavicle 4.18442e-014 -8.74653e-015
lhumerus 22.8995 -22.0087 87.8551
lradius 136.901
lwrist -11.745
lhand 22.9097 45.3223
lfingers 7.12502
lthumb 47.2355 67.8841
rfemur -8.51026 -3.7655 18.1246
rtibia 30.6457
rfoot -18.0706 -18.3992
rtoes -8.46856
lfemur -6.73674 0.638078 -19.3831
ltibia 26.2059
lfoot -16.796 12.426
ltoes -15.0671
134
root -0.612106 17.7991 -0.808195 -3.4262 0.84544 2.74044
lowerback 5.69922 3.39617 -0.91285
upperback 6.41455 4.48244 0.962588
thorax 3.29097 2.18939 1.37524
lowerneck 10.294 -3.9336 -5.74809
upperneck 6.5195 -5.90792 6.1654
head 0.694473 -3.08127 3.12895
rclavicle 2.8128e-014 -5.56597e-015
rhumerus 6.75603 19.1039 -85.771
rradius 132.744
rwrist 19.2448
rhand 36.2371 -7.34976
rfingers 7.12502
rthumb 59.2095 -21.934
lclavicle 2.8128e-014 -5.56597e-015
lhumerus 23.0707 -22.2449 88.4174
lradius 137.001
lwrist -11.6943
lhand 22.6596 45.1636
lfingers 7.12502
lthumb 47.0041 67.828
rfemur -8.62002 -3.95131 18.083
rtibia 31.1459
rfoot -18.2481 -18.4271
rtoes -8.75096
lfemur -6.94279 0.788366 -19.3684
ltibia 26.7819
lfoot -16.9569 12.0653
ltoes -14.9379
135
root -0.606251 17.7821 -0.82015 -3.61409 1.01344 2.7677
lowerback 5.84274 3.39552 -0.975226
upperback 6.6342 4.47987 0.937238
thorax 3.43905 2.18441 1.38391
lowerneck 10.4085 -3.99602 -5.57578
upperneck 6.23261 -5.96818 6.19841
head 0.581466 -3.1099 3.1165
rclavicle 3.37934e-015 -1.59028e-015
rhumerus 6.64024 19.1793 -86.0359
rradius 132.91
rwrist 18.4194
rhand 36.8554 -7.36352
rfingers 7.12502
rthumb 59.7413 -21.4125
lclavicle 3.37934e-015 -1.59028e-015
lhumerus 23.2641 -22.4966 88.9445
lradius 137.061
lwrist -11.8708
lhand 22.5185 44.9607
lfingers 7.12502
lthumb 46.8736 67.6824
rfemur -8.69092 -4.17247 17.9984
rtibia 31.6182
rfoot -18.4824 -18.3597
rtoes -8.64687
lfemur -7.11303 0.97478 -19.3905
ltibia 27.3264
lfoot -16.9982 11.7018
ltoes -14.9631
